<svg width="45" height="45" viewBox="0 0 45 45" fill="none" xmlns="http://www.w3.org/2000/svg">
<path d="M0.901367 0.899658H12.1735L26.8835 22.5161V0.899658H38.2658V39.9714H26.8835L12.2515 18.5183V39.9714H0.901367V0.899658Z" fill="black" stroke="#1A99FF" stroke-width="1.79961" stroke-miterlimit="10"/>
<path d="M1.24463 1.1377H12.5182L27.2302 22.7542V1.1377H38.6104V40.2094H27.2302L12.5982 18.7563V40.2094H1.24463V1.1377Z" fill="black"/>
<path d="M39.5075 41.1065H26.7558L13.496 21.665V41.1065H0.346924V0.23999H12.9961L26.3325 19.8401V0.23999H39.5075V41.1065ZM27.7041 39.3117H37.7127V2.03344H28.1273V25.6677L12.0464 2.03344H2.14175V39.3117H11.7005V15.845L27.7041 39.3117Z" fill="#258FFF"/>
<path d="M1.58911 1.37549H12.8633L27.5747 22.9913V1.37549H38.9549V40.4472H27.5747L12.9426 18.9941V40.4472H1.58911V1.37549Z" fill="black"/>
<path d="M39.8498 41.3422H27.1015L13.8369 21.8946V41.3422H0.696045V0.480469H13.3384L26.6782 20.084V0.480469H39.8498V41.3422ZM28.0457 39.5522H38.0598V2.2705H28.4696V25.8958L12.388 2.2705H2.48403V39.5522H12.0462V16.093L28.0457 39.5522Z" fill="#2F85FF"/>
<path d="M1.93384 1.61353H13.2081L27.9194 23.2293V1.61353H39.2996V40.6852H27.9194L13.2881 19.2315V40.6852H1.93384V1.61353Z" fill="black"/>
<path d="M40.1925 41.5777H27.4476L14.183 22.1252V41.5777H1.0415V0.720703H13.6798L27.0264 20.3318V0.720703H40.1925V41.5777ZM28.3912 39.7924H38.4073V2.50595H28.8117V26.1279L12.7355 2.50595H2.82675V39.7924H12.395V16.3401L28.3912 39.7924Z" fill="#3A7BFF"/>
<path d="M2.27832 1.85156H13.5525L28.2639 23.4674V1.85156H39.6441V40.9226H28.2639L13.6325 19.4695V40.9226H2.27832V1.85156Z" fill="black"/>
<path d="M40.5342 41.8126H27.7934L14.5219 22.3547V41.8126H1.38794V0.960449H14.0228L27.3735 20.577V0.960449H40.5342V41.8126ZM28.7342 40.0349H38.7537V2.74091H29.154V26.3573L13.0813 2.74091H3.16703V40.0322H12.7394V16.5839L28.7342 40.0349Z" fill="#4470FF"/>
<path d="M2.62329 2.08887H13.8968L28.6082 23.7054V2.08887H39.9891V41.1606H28.6082L13.9768 19.7075V41.1606H2.62329V2.08887Z" fill="black"/>
<path d="M40.8769 42.0486H28.1395L14.8647 22.5852V42.0486H1.73682V1.20117H14.3669L27.721 20.8246V1.20117H40.8769V42.0486ZM29.0776 40.2708H39.1012V2.97685H29.4967V26.5878L13.4274 2.97685H3.51318V40.2729H13.089V16.8301L29.0776 40.2708Z" fill="#4F66FF"/>
<path d="M2.96802 2.32666H14.2415L28.9529 23.9431V2.32666H40.3338V41.3984H28.9529L14.3215 19.9453V41.3984H2.96802V2.32666Z" fill="black"/>
<path d="M41.2188 42.2838H28.4854L15.2072 22.8149V42.2838H2.07935V1.44116H14.7128L28.0704 21.0645V1.44116H41.2188V42.2838ZM29.4208 40.5129H39.4479V3.21205H29.8386V26.8175L13.7706 3.21205H3.85297V40.5129H13.4363V17.0756L29.4208 40.5129Z" fill="#595CFF"/>
<path d="M3.3125 2.5647H14.586L29.2981 24.1812V2.5647H40.6783V41.6364H29.2981L14.666 20.1833V41.6364H3.3125V2.5647Z" fill="black"/>
<path d="M41.5613 42.519H28.8314L15.5491 23.0453V42.519H2.42944V1.68115H15.0547L28.415 21.3148V1.68115H41.5613V42.519ZM29.7647 40.7529H39.7952V3.44726H30.1811V27.048L14.1194 3.44726H4.19555V40.7529H13.783V17.3211L29.7647 40.7529Z" fill="#6452FF"/>
<path d="M3.65723 2.80249H14.9308L29.6428 24.4183V2.80249H41.023V41.8742H29.6428L15.0108 20.4211V41.8742H3.65723V2.80249Z" fill="black"/>
<path d="M41.9035 42.7549H29.177L15.8912 23.2751V42.7549H2.77637V1.92188H15.3962L28.7613 21.5596V1.92188H41.9035V42.7549ZM30.1076 40.9936H40.1422V3.68319H30.5226V27.2777L14.4649 3.68319H4.53769V40.9936H14.1299V17.5666L30.1076 40.9936Z" fill="#6E48FF"/>
<path d="M4.00171 3.04053H15.2752L29.9873 24.6563V3.04053H41.3675V42.1122H29.9873L15.3552 20.6592V42.1122H4.00171V3.04053Z" fill="black"/>
<path d="M42.2456 42.9894H29.5232L16.234 23.5028V42.9894H3.12329V2.16187H15.7383L29.1089 21.8051V2.16187H42.2456V42.9894ZM30.4511 41.2329H40.4898V3.9184H30.8654V27.5075L14.8112 3.9184H4.87982V41.2336H14.4775V17.812L30.4511 41.2329Z" fill="#793EFF"/>
<path d="M4.34644 3.27856H15.6207L30.332 24.8944V3.27856H41.7122V42.3496H30.332L15.7 20.8965V42.3496H4.34644V3.27856Z" fill="black"/>
<path d="M42.5882 43.2253H29.8706L16.576 23.7353V43.2253H3.4707V2.40186H16.0837L29.4563 22.0505V2.40186H42.5882V43.2253ZM30.7951 41.4736H40.8365V4.15292H31.208V27.7379L15.1572 4.15292H5.22245V41.4736H14.8242V18.0582L30.7951 41.4736Z" fill="#8334FF"/>
<path d="M4.69141 3.51562H15.9656L30.677 25.1321V3.51562H42.0572V42.5873H30.677L16.0449 21.1343V42.5873H4.69141V3.51562Z" fill="black"/>
<path d="M42.9309 43.4612H30.2133L16.9186 23.965V43.4612H3.81812V2.64185H16.427L29.803 22.296V2.64253H42.9309V43.4612ZM31.1384 41.7142H41.1839V4.38949H31.55V27.9683L15.5033 4.38949H5.56507V41.7142H15.1716V18.3064L31.1384 41.7142Z" fill="#8E2AFF"/>
<path d="M5.03589 3.75366H16.3101L31.0215 25.3701V3.75366H42.4017V42.8254H31.0215L16.3901 21.3723V42.8254H5.03589V3.75366Z" fill="black"/>
<path d="M43.2723 43.6965H30.5608L17.26 24.1955V43.6965H4.16431V2.88257H16.7704L30.1499 22.5456V2.88257H43.2723V43.6965ZM31.4811 41.9543H41.5321V4.62201H31.8914V28.1981L15.8488 4.62474H5.90648V41.957H15.5178V18.5491L31.4811 41.9543Z" fill="#981FFF"/>
<path d="M5.3811 3.9917H16.6546L31.366 25.6082V3.9917H42.7462V43.0634H31.366L16.7346 21.6103V43.0634H5.3811V3.9917Z" fill="black"/>
<path d="M43.6154 43.9317H30.9074L17.6031 24.4253V43.9317H4.51221V3.12329H17.1142L30.4978 22.7877V3.12329H43.6154V43.9317ZM31.8249 42.1943H41.8759V4.86204H32.2352V28.4258L16.1953 4.85999H6.24959V42.1923H15.8657V18.7946L31.8249 42.1943Z" fill="#A315FF"/>
<path d="M5.72559 4.22949H16.9991L31.7105 25.846V4.22949H43.0914V43.3012H31.7105L17.0791 21.8481V43.3012H5.72559V4.22949Z" fill="black"/>
<path d="M43.957 44.1676H31.2531L17.9455 24.6557V44.1676H4.85864V3.36328H17.4573L30.8442 23.0332V3.36328H43.957V44.1676ZM32.1686 42.435H42.2244V5.09588H32.5768V28.6583L16.541 5.09588H6.59124V42.435H16.2129V19.0401L32.1686 42.435Z" fill="#AD0BFF"/>
<path d="M6.07031 4.46753H17.3438L32.0559 26.084V4.46753H43.4361V43.5365H32.0559L17.4238 22.0834V43.5365H6.07373L6.07031 4.46753Z" fill="black" stroke="#B801FF" stroke-width="1.72781" stroke-miterlimit="10"/>
</svg>
