<svg width="20" height="20" viewBox="0 0 20 20" fill="none" xmlns="http://www.w3.org/2000/svg">
<path d="M14.9998 6.66675H8.33317C7.4127 6.66675 6.6665 7.41294 6.6665 8.33341V15.0001C6.6665 15.9206 7.4127 16.6667 8.33317 16.6667H14.9998C15.9203 16.6667 16.6665 15.9206 16.6665 15.0001V8.33341C16.6665 7.41294 15.9203 6.66675 14.9998 6.66675Z" stroke="#989699" stroke-linecap="round" stroke-linejoin="round"/>
<path d="M13.3335 6.66659V4.99992C13.3335 4.55789 13.1579 4.13397 12.8453 3.82141C12.5328 3.50885 12.1089 3.33325 11.6668 3.33325H5.00016C4.55814 3.33325 4.13421 3.50885 3.82165 3.82141C3.50909 4.13397 3.3335 4.55789 3.3335 4.99992V11.6666C3.3335 12.1086 3.50909 12.5325 3.82165 12.8451C4.13421 13.1577 4.55814 13.3333 5.00016 13.3333H6.66683" stroke="#989699" stroke-linecap="round" stroke-linejoin="round"/>
</svg>
