<svg width="159" height="33" viewBox="0 0 159 33" fill="none" xmlns="http://www.w3.org/2000/svg">
<path d="M44.3878 25.9654H48.2243V18.4581H56.9511V15.1636H48.2243V11.248H57.1402V7.95349H44.3878V25.9654Z" fill="black"/>
<path d="M65.7937 26.2895C70.1165 26.2895 72.7102 23.157 72.7102 19.4304C72.7102 15.7307 70.1165 12.5983 65.7937 12.5983C61.4979 12.5983 58.9042 15.7307 58.9042 19.4304C58.9042 23.157 61.4979 26.2895 65.7937 26.2895ZM65.7937 23.238C63.6593 23.238 62.4706 21.4827 62.4706 19.4304C62.4706 17.4051 63.6593 15.6498 65.7937 15.6498C67.9281 15.6498 69.1439 17.4051 69.1439 19.4304C69.1439 21.4827 67.9281 23.238 65.7937 23.238Z" fill="black"/>
<path d="M75.2559 25.9653H78.6871V17.3509C79.2545 16.5137 80.7675 15.8926 81.9022 15.8926C82.2805 15.8926 82.6047 15.9197 82.8479 15.9737V12.6251C81.2268 12.6251 79.6058 13.5433 78.6871 14.7045V12.9222H75.2559V25.9653Z" fill="black"/>
<path d="M89.3686 26.2894C90.8004 26.2894 91.7197 25.9113 92.2323 25.4522L91.5033 22.8598C91.3139 23.0488 90.8274 23.2379 90.3147 23.2379C89.558 23.2379 89.1253 22.6168 89.1253 21.8067V15.9197H91.7736V12.9223H89.1253V9.35767H85.6674V12.9223H83.506V15.9197H85.6674V22.7248C85.6674 25.0472 86.9645 26.2894 89.3686 26.2894Z" fill="black"/>
<path d="M110.304 25.9654H113.763V16.5409C113.763 13.8675 112.33 12.5983 109.926 12.5983C107.927 12.5983 106.198 13.7864 105.441 14.9747C104.955 13.4894 103.739 12.5983 101.821 12.5983C99.8216 12.5983 98.0926 13.8405 97.5522 14.6236V12.9224H94.1211V25.9654H97.5522V17.189C98.0657 16.4599 99.0649 15.6498 100.254 15.6498C101.659 15.6498 102.199 16.5139 102.199 17.7291V25.9654H105.658V17.162C106.143 16.4599 107.143 15.6498 108.359 15.6498C109.764 15.6498 110.304 16.5139 110.304 17.7291V25.9654Z" fill="black"/>
<path d="M124.963 25.9654H128.394V17.5401C128.394 13.7864 125.665 12.5983 122.694 12.5983C120.64 12.5983 118.587 13.2464 116.992 14.6506L118.29 16.946C119.397 15.9198 120.695 15.4067 122.1 15.4067C123.829 15.4067 124.963 16.2709 124.963 17.5941V19.4034C124.099 18.3502 122.558 17.8101 120.829 17.8101C118.749 17.8101 116.29 18.9172 116.29 21.9688C116.29 24.8852 118.749 26.2895 120.829 26.2895C122.531 26.2895 124.072 25.6684 124.963 24.6152V25.9654ZM124.963 22.8329C124.396 23.589 123.315 23.9671 122.207 23.9671C120.856 23.9671 119.748 23.265 119.748 22.0498C119.748 20.8076 120.856 20.0785 122.207 20.0785C123.315 20.0785 124.396 20.4565 124.963 21.2127V22.8329Z" fill="black"/>
<path d="M136.175 26.2894C137.607 26.2894 138.525 25.9113 139.039 25.4522L138.309 22.8598C138.12 23.0488 137.634 23.2379 137.12 23.2379C136.364 23.2379 135.932 22.6168 135.932 21.8067V15.9197H138.579V12.9223H135.932V9.35767H132.473V12.9223H130.312V15.9197H132.473V22.7248C132.473 25.0472 133.77 26.2894 136.175 26.2894Z" fill="black"/>
<path d="M142.629 11.0051C143.764 11.0051 144.682 10.0869 144.682 8.95273C144.682 7.81854 143.764 6.90039 142.629 6.90039C141.521 6.90039 140.576 7.81854 140.576 8.95273C140.576 10.0869 141.521 11.0051 142.629 11.0051ZM140.927 25.9654H144.358V12.9224H140.927V25.9654Z" fill="black"/>
<path d="M146.923 19.4304C146.923 23.454 149.814 26.2895 153.84 26.2895C156.514 26.2895 158.136 25.1283 159 23.9131L156.758 21.8338C156.136 22.6979 155.19 23.238 154.002 23.238C151.921 23.238 150.463 21.6987 150.463 19.4304C150.463 17.162 151.921 15.6498 154.002 15.6498C155.19 15.6498 156.136 16.1629 156.758 17.054L159 14.9747C158.136 13.7594 156.514 12.5983 153.84 12.5983C149.814 12.5983 146.923 15.4337 146.923 19.4304Z" fill="black"/>
<path fill-rule="evenodd" clip-rule="evenodd" d="M15.5871 0.779053H23.3807H31.1743V8.76837H23.3807H15.5871H7.79357V16.7577V17.27V24.7005V24.7471V32.6898H0V24.7471V24.7005V17.27V16.7577V8.76837V0.779053H7.79357H15.5871ZM23.3813 24.7029H15.6331V16.7602H31.1703V24.9824C31.1703 27.0264 30.3785 28.9867 28.969 30.4324C27.5596 31.8782 25.6477 32.691 23.6538 32.6923H23.3813V24.7029Z" fill="#6851FF"/>
</svg>
