<svg width="24" height="24" viewBox="0 0 24 24" fill="none" xmlns="http://www.w3.org/2000/svg">
<path d="M3.49999 8.49998C5.99998 2.49999 10.3333 5.33331 12 6.99998C13.5 5.49998 17.2 3.39999 20 6.99999C23.5 11.5 16.5 17 12 21C7.99999 17 1.49999 12.5 3.49999 8.49998Z" fill="white"/>
<path d="M19.5 13.5721L12 21.0001L4.5 13.5721C4.0053 13.0907 3.61564 12.5121 3.35554 11.8727C3.09545 11.2333 2.97056 10.547 2.98873 9.85699C3.00691 9.16697 3.16776 8.48819 3.46115 7.86339C3.75455 7.23859 4.17413 6.68131 4.69348 6.22663C5.21283 5.77196 5.8207 5.42974 6.47881 5.22154C7.13691 5.01333 7.831 4.94364 8.51736 5.01686C9.20373 5.09007 9.8675 5.30461 10.4669 5.64696C11.0662 5.98931 11.5882 6.45205 12 7.00605C12.4135 6.45608 12.9361 5.99738 13.5351 5.65866C14.1341 5.31994 14.7965 5.1085 15.4809 5.03757C16.1654 4.96665 16.8571 5.03775 17.5128 5.24645C18.1685 5.45514 18.774 5.79693 19.2915 6.25042C19.8091 6.70391 20.2274 7.25934 20.5204 7.88195C20.8134 8.50456 20.9747 9.18094 20.9943 9.86876C21.0139 10.5566 20.8913 11.241 20.6341 11.8793C20.377 12.5176 19.9909 13.0959 19.5 13.5781" stroke="black" stroke-width="1.5" stroke-linecap="round" stroke-linejoin="round"/>
</svg>
