<svg width="122" height="45" viewBox="0 0 122 45" fill="none" xmlns="http://www.w3.org/2000/svg">
<g clip-path="url(#clip0)">
<path d="M79.2656 0.899658H115.965V10.5479H103.652V39.9714H91.5791V10.5479H79.2656V0.899658Z" fill="black" stroke="#1A99FF" stroke-width="1.79961" stroke-miterlimit="10"/>
<path d="M91.9236 10.7511H79.6443V1.17188H116.276V10.7511H103.997H103.963V10.7853V40.1752H91.9578V10.7853V10.7511H91.9236Z" fill="black" stroke="black" stroke-width="0.0683741"/>
<path d="M104.86 11.6831V41.0723H91.0602V11.6831V11.6489H91.026H78.7454V0.274177H117.172V11.6489H104.894H104.86V11.6831ZM92.7874 39.3117V39.3459H92.8216H103.1H103.134V39.3117V9.92245H115.413H115.447V9.88827V2.03344V1.99926H115.413H80.5081H80.4739V2.03344V9.88827V9.92245H80.5081H92.7874V39.3117Z" fill="#258FFF" stroke="black" stroke-width="0.0683741"/>
<path d="M79.9548 1.37549H116.655V11.0231H104.342V40.4472H92.2683V11.0231H79.9548V1.37549Z" fill="black"/>
<path d="M105.24 41.3422H91.3733V11.9181H79.0598V0.480469H117.548V11.9181H105.24V41.3422ZM93.1668 39.5522H103.45V10.1281H115.763V2.2705H80.8499V10.1281H93.1634L93.1668 39.5522Z" fill="#2F85FF"/>
<path d="M80.2993 1.61353H117V11.2611H104.686V40.6852H92.6128V11.2611H80.2993V1.61353Z" fill="black"/>
<path d="M105.582 41.5777H91.7207V12.1529H79.4072V0.720703H117.89V12.1529H105.582V41.5777ZM93.5094 39.7924H103.797V10.3683H116.11V2.50527H81.1925V10.3683H93.506L93.5094 39.7924Z" fill="#3A7BFF"/>
<path d="M80.6445 1.85156H117.344V11.4992H105.031V40.9226H92.958V11.4992H80.6445V1.85156Z" fill="black"/>
<path d="M105.924 41.8126H92.0672V12.3892H79.7537V0.960449H118.235V12.3892H105.924V41.8126ZM93.8504 40.0349H104.143V10.6087H116.453V2.74091H81.5348V10.6087H93.8476L93.8504 40.0349Z" fill="#4470FF"/>
<path d="M80.989 2.08887H117.689V11.7371H105.375V41.1606H93.3025V11.7371H80.989V2.08887Z" fill="black"/>
<path d="M106.266 42.0486H92.4146V12.6244H80.1011V1.20117H118.577V12.6244H106.266V42.0486ZM94.1923 40.2708H104.488V10.8488H116.801V2.97685H81.8768V10.8488H94.1903L94.1923 40.2708Z" fill="#4F66FF"/>
<path d="M81.3337 2.32666H118.034V11.9749H105.72V41.3984H93.6472V11.9749H81.3337V2.32666Z" fill="black"/>
<path d="M106.608 42.2838H92.7617V12.8596H80.4482V1.44116H118.919V12.8596H106.608V42.2838ZM94.5347 40.5129H104.837V11.0888H117.15V3.21205H82.2191V11.0888H94.5326L94.5347 40.5129Z" fill="#595CFF"/>
<path d="M81.6782 2.5647H118.378V12.2123H106.065V41.6364H93.9917V12.2123H81.6782V2.5647Z" fill="black"/>
<path d="M106.95 42.519H93.1087V13.0955H80.7952V1.68115H119.261V13.0955H106.95V42.519ZM94.8748 40.7529H105.182V11.3322H117.495V3.44726H82.5613V11.3322H94.8748V40.7529Z" fill="#6452FF"/>
<path d="M82.0227 2.80249H118.723V12.4501H106.41V41.8742H94.3362V12.4501H82.0227V2.80249Z" fill="black"/>
<path d="M107.292 42.7549H93.4561V13.3308H81.1426V1.92188H119.604V13.3308H107.292V42.7549ZM95.2181 40.9936H105.53V11.5695H117.843V3.68319H82.9039V11.5695H95.2174L95.2181 40.9936Z" fill="#6E48FF"/>
<path d="M82.3674 3.04053H119.067V12.6881H106.754V42.1122H94.6809V12.6881H82.3674V3.04053Z" fill="black"/>
<path d="M107.634 42.9894H93.8028V13.566H81.49V2.16187H119.946V13.566H107.634V42.9894ZM95.5607 41.2329H105.876V11.8108H118.19V3.9184H83.2465V11.8108H95.56L95.5607 41.2329Z" fill="#793EFF"/>
<path d="M82.7119 3.27856H119.412V12.9262H107.099V42.3496H95.0254V12.9262H82.7119V3.27856Z" fill="black"/>
<path d="M107.975 43.2253H94.1499V13.8019H81.8364V2.40186H120.288V13.8019H107.975V43.2253ZM95.9017 41.4736H106.226V12.0501H118.539V4.15292H83.5882V12.0501H95.9017V41.4736Z" fill="#8334FF"/>
<path d="M83.0566 3.51562H119.757V13.1639H107.444V42.5873H95.3701V13.1639H83.0566V3.51562Z" fill="black"/>
<path d="M108.317 43.4613H94.4971V14.0371H82.1836V2.64258H120.63V14.0371H108.317V43.4613ZM96.2441 41.7143H106.569V12.2895H118.881V4.38954H83.9285V12.2895H96.242L96.2441 41.7143Z" fill="#8E2AFF"/>
<path d="M83.4021 3.75366H120.102V13.4019H107.788V42.8254H95.7156V13.4019H83.4021V3.75366Z" fill="black"/>
<path d="M108.659 43.6965H94.8474V14.2723H82.5305V2.88257H120.973V14.2723H108.659V43.6965ZM96.5855 41.9543H106.917V12.5308H119.23V4.62474H84.2727V12.5308H96.5862L96.5855 41.9543Z" fill="#981FFF"/>
<path d="M83.7466 3.9917H120.446V13.64H108.133V43.0634H96.0601V13.64H83.7466V3.9917Z" fill="black"/>
<path d="M109.001 43.9317H95.1894V14.5083H82.8779V3.12329H121.315V14.5083H109.001V43.9317ZM96.9275 42.1943H107.264V12.7681H119.576V4.85999H84.6153V12.7681H96.9288L96.9275 42.1943Z" fill="#A315FF"/>
<path d="M84.0913 4.22949H120.791V13.8771H108.478V43.3012H96.4048V13.8771H84.0913V4.22949Z" fill="black"/>
<path d="M109.343 44.1676H95.5387V14.7435H83.2239V3.36328H121.656V14.7435H109.343V44.1676ZM97.27 42.435H107.61V13.0109H119.924V5.09588H84.9578V13.0109H97.2713L97.27 42.435Z" fill="#AD0BFF"/>
<path d="M84.4358 4.46753H121.136V14.1151H108.822V43.5365H96.7486V14.1151H84.4358V4.46753Z" fill="black" stroke="#B801FF" stroke-width="1.72781" stroke-miterlimit="10"/>
<path d="M45.6575 0.899658H75.5076V9.29532H57.7843V16.1184H72.9223V24.0067H57.7843V39.9714H45.6575V0.899658Z" fill="black" stroke="#1A99FF" stroke-width="1.79961" stroke-miterlimit="10"/>
<path d="M46.002 1.1377H75.8521V9.53336H58.1288V16.3557H73.2668V24.2447H58.1288V40.2094H46.002V1.1377Z" fill="black"/>
<path d="M59.0262 41.1065H45.1052V0.23999H76.7501V10.4277H59.0262V15.4553H74.1649V25.1439H59.0262V41.1065ZM46.9 39.3117H57.2314V23.3477H72.3701V17.2535H57.2314V8.63839H74.9553V2.03344H46.9V39.3117Z" fill="#258FFF"/>
<path d="M46.3467 1.37549H76.1968V9.77046H58.4735V16.5935H73.6122V24.4825H58.4735V40.4472H46.3467V1.37549Z" fill="black"/>
<path d="M59.3685 41.3422H45.4517V0.480469H77.0918V10.6682H59.3685V15.7012H74.5066V25.3776H59.3685V41.3422ZM47.2417 39.5522H57.5785V23.5875H72.7165V17.4858H57.5785V8.87066H75.3018V2.26572H47.2417V39.5522Z" fill="#2F85FF"/>
<path d="M46.6912 1.61353H76.5413V10.0085H58.818V16.8316H73.9567V24.7206H58.818V40.6852H46.6912V1.61353Z" fill="black"/>
<path d="M59.7112 41.5777H45.7991V0.720703H77.4344V10.9016H59.7112V15.9387H74.8492V25.613H59.7112V41.5777ZM47.5843 39.7924H57.9252V23.8277H73.0633V17.724H57.9252V9.11636H75.6485V2.50595H47.5843V39.7924Z" fill="#3A7BFF"/>
<path d="M47.0366 1.85156H76.8867V10.2465H59.1628V17.0696H74.3015V24.9586H59.1628V40.9226H47.0366V1.85156Z" fill="black"/>
<path d="M60.0533 41.8126H46.146V0.960449H77.7772V11.1366H60.0533V16.1785H75.192V25.8486H60.0533V41.8126ZM47.9265 40.0349H58.2728V24.0682H73.4109V17.9596H58.2728V9.35611H75.9961V2.74091H47.9265V40.0349Z" fill="#4470FF"/>
<path d="M47.3813 2.08887H77.2315V10.4845H59.5082V17.3076H74.6462V25.1966H59.5082V41.1606H47.3813V2.08887Z" fill="black"/>
<path d="M60.3957 42.0486H46.4932V1.20117H78.1189V11.3718H60.3957V16.4192H75.5337V26.0839H60.3957V42.0486ZM48.2688 40.2708H58.62V24.3082H73.758V18.1949H58.62V9.59615H76.3433V2.97685H48.2688V40.2708Z" fill="#4F66FF"/>
<path d="M47.7258 2.32666H77.5759V10.7223H59.8527V17.5447H74.9907V25.4344H59.8527V41.3984H47.7258V2.32666Z" fill="black"/>
<path d="M60.7376 42.2838H46.8406V1.44116H78.4616V11.6057H60.7376V16.6571H75.8763V26.3191H60.7376V42.2838ZM48.6115 40.5129H58.9667V24.5482H74.1055V18.4301H58.9667V9.83683H76.6907V3.21205H48.6115V40.5129Z" fill="#595CFF"/>
<path d="M48.0706 2.5647H77.9207V10.9604H60.1974V17.7827H75.3354V25.6717H60.1974V41.6364H48.0706V2.5647Z" fill="black"/>
<path d="M61.0802 42.519H47.1907V1.68115H78.8069V11.8429H61.0802V16.9026H76.2182V26.555H61.0802V42.519ZM48.9534 40.7529H59.3141V24.7889H74.4521V18.666H59.3141V10.0768H77.0374V3.44452H48.9534V40.7529Z" fill="#6452FF"/>
<path d="M48.415 2.80249H78.2651V11.1975H60.5419V18.0205H75.6799V25.9095H60.5419V41.8742H48.415V2.80249Z" fill="black"/>
<path d="M61.4227 42.7549H47.5325V1.92188H79.1439V12.0782H61.4227V17.1379H76.5607V26.7902H61.4227V42.7549ZM49.2958 40.9936H59.6614V25.0289H74.7994V18.9012H59.6614V10.3169H77.3846V3.68456H49.2958V40.9936Z" fill="#6E48FF"/>
<path d="M48.7598 3.04053H78.6099V11.4355H60.8866V18.2586H76.0246V26.1476H60.8866V42.1122H48.7598V3.04053Z" fill="black"/>
<path d="M61.7645 42.9894H47.8845V2.16187H79.4912V12.3141H61.7645V17.3799H76.9032V27.0254H61.7645V42.9894ZM49.6383 41.2336H60.0079V25.2689H75.1467V19.1364H60.0079V10.5575H77.7319V3.9184H49.6383V41.2336Z" fill="#793EFF"/>
<path d="M49.1042 3.27856H78.9544V11.6735H61.2311V18.4966H76.3691V26.3856H61.2311V42.3496H49.1042V3.27856Z" fill="black"/>
<path d="M62.1072 43.2253H48.2273V2.40186H79.8291V12.5493H62.1072V17.6226H77.2453V27.2634H62.1072V43.2253ZM49.9804 41.4736H60.3555V25.5096H75.4935V19.3716H60.3555V10.7975H78.0788V4.15292H49.9804V41.4736Z" fill="#8334FF"/>
<path d="M49.4492 3.51562H79.2993V11.9113H61.5754V18.7343H76.7141V26.6234H61.5754V42.5873H49.4492V3.51562Z" fill="black"/>
<path d="M62.4497 43.4612H48.5759V2.64185H80.173V12.7845H62.4497V17.8606H77.5878V27.4965H62.4497V43.4612ZM50.3229 41.7142H60.7028V25.7496H75.8394V19.6055H60.7028V11.0375H78.426V4.38949H50.3243L50.3229 41.7142Z" fill="#8E2AFF"/>
<path d="M49.7944 3.75366H79.6445V12.1493H61.9213V18.9717H77.0593V26.8614H61.9213V42.8254H49.7944V3.75366Z" fill="black"/>
<path d="M62.7914 43.6965H48.9224V2.88257H80.5146V13.0204H62.7914V18.1013H77.9301V27.7318H62.7914V43.6965ZM50.6645 41.9543H61.0492V25.9896H76.1879V19.8428H61.0492V11.2782H78.7725V4.62474H50.6645V41.9543Z" fill="#981FFF"/>
<path d="M50.1389 3.9917H79.989V12.3874H62.2658V19.2097H77.4038V27.0987H62.2658V43.0634H50.1389V3.9917Z" fill="black"/>
<path d="M63.134 43.9317H49.2698V3.12329H80.8586V13.2557H63.134V18.3413H78.272V27.9677H63.134V43.9317ZM51.0072 42.1943H61.3966V26.2303H76.5347V20.0767H61.3966V11.5183H79.1212V4.85999H51.0072V42.1943Z" fill="#A315FF"/>
<path d="M50.4836 4.22949H80.3337V12.6245H62.6105V19.4475H77.7485V27.3365H62.6105V43.3012H50.4836V4.22949Z" fill="black"/>
<path d="M63.4757 44.1676H49.6169V3.36328H81.1996V13.4909H63.4757V18.58H78.6144V28.2029H63.4757V44.1676ZM51.3495 42.435H61.7424V26.4703H76.8805V20.3167H61.7424V11.7583H79.4657V5.09588H51.3495V42.435Z" fill="#AD0BFF"/>
<path d="M50.8281 4.46753H80.6782V12.8625H62.955V19.6856H78.0957V27.5746H62.9577V43.5365H50.8281V4.46753Z" fill="black" stroke="#B801FF" stroke-width="1.72781" stroke-miterlimit="10"/>
<path d="M0.901367 0.899658H12.1735L26.8835 22.5161V0.899658H38.2658V39.9714H26.8835L12.2515 18.5183V39.9714H0.901367V0.899658Z" fill="black" stroke="#1A99FF" stroke-width="1.79961" stroke-miterlimit="10"/>
<path d="M1.24463 1.1377H12.5182L27.2302 22.7542V1.1377H38.6104V40.2094H27.2302L12.5982 18.7563V40.2094H1.24463V1.1377Z" fill="black"/>
<path d="M39.5075 41.1065H26.7558L13.496 21.665V41.1065H0.346924V0.23999H12.9961L26.3325 19.8401V0.23999H39.5075V41.1065ZM27.7041 39.3117H37.7127V2.03344H28.1273V25.6677L12.0464 2.03344H2.14175V39.3117H11.7005V15.845L27.7041 39.3117Z" fill="#258FFF"/>
<path d="M1.58911 1.37549H12.8633L27.5747 22.9913V1.37549H38.9549V40.4472H27.5747L12.9426 18.9941V40.4472H1.58911V1.37549Z" fill="black"/>
<path d="M39.8498 41.3422H27.1015L13.8369 21.8946V41.3422H0.696045V0.480469H13.3384L26.6782 20.084V0.480469H39.8498V41.3422ZM28.0457 39.5522H38.0598V2.2705H28.4696V25.8958L12.388 2.2705H2.48403V39.5522H12.0462V16.093L28.0457 39.5522Z" fill="#2F85FF"/>
<path d="M1.93384 1.61353H13.2081L27.9194 23.2293V1.61353H39.2996V40.6852H27.9194L13.2881 19.2315V40.6852H1.93384V1.61353Z" fill="black"/>
<path d="M40.1925 41.5777H27.4476L14.183 22.1252V41.5777H1.0415V0.720703H13.6798L27.0264 20.3318V0.720703H40.1925V41.5777ZM28.3912 39.7924H38.4073V2.50595H28.8117V26.1279L12.7355 2.50595H2.82675V39.7924H12.395V16.3401L28.3912 39.7924Z" fill="#3A7BFF"/>
<path d="M2.27832 1.85156H13.5525L28.2639 23.4674V1.85156H39.6441V40.9226H28.2639L13.6325 19.4695V40.9226H2.27832V1.85156Z" fill="black"/>
<path d="M40.5342 41.8126H27.7934L14.5219 22.3547V41.8126H1.38794V0.960449H14.0228L27.3735 20.577V0.960449H40.5342V41.8126ZM28.7342 40.0349H38.7537V2.74091H29.154V26.3573L13.0813 2.74091H3.16703V40.0322H12.7394V16.5839L28.7342 40.0349Z" fill="#4470FF"/>
<path d="M2.62329 2.08887H13.8968L28.6082 23.7054V2.08887H39.9891V41.1606H28.6082L13.9768 19.7075V41.1606H2.62329V2.08887Z" fill="black"/>
<path d="M40.8769 42.0486H28.1395L14.8647 22.5852V42.0486H1.73682V1.20117H14.3669L27.721 20.8246V1.20117H40.8769V42.0486ZM29.0776 40.2708H39.1012V2.97685H29.4967V26.5878L13.4274 2.97685H3.51318V40.2729H13.089V16.8301L29.0776 40.2708Z" fill="#4F66FF"/>
<path d="M2.96802 2.32666H14.2415L28.9529 23.9431V2.32666H40.3338V41.3984H28.9529L14.3215 19.9453V41.3984H2.96802V2.32666Z" fill="black"/>
<path d="M41.2188 42.2838H28.4854L15.2072 22.8149V42.2838H2.07935V1.44116H14.7128L28.0704 21.0645V1.44116H41.2188V42.2838ZM29.4208 40.5129H39.4479V3.21205H29.8386V26.8175L13.7706 3.21205H3.85297V40.5129H13.4363V17.0756L29.4208 40.5129Z" fill="#595CFF"/>
<path d="M3.3125 2.5647H14.586L29.2981 24.1812V2.5647H40.6783V41.6364H29.2981L14.666 20.1833V41.6364H3.3125V2.5647Z" fill="black"/>
<path d="M41.5613 42.519H28.8314L15.5491 23.0453V42.519H2.42944V1.68115H15.0547L28.415 21.3148V1.68115H41.5613V42.519ZM29.7647 40.7529H39.7952V3.44726H30.1811V27.048L14.1194 3.44726H4.19555V40.7529H13.783V17.3211L29.7647 40.7529Z" fill="#6452FF"/>
<path d="M3.65723 2.80249H14.9308L29.6428 24.4183V2.80249H41.023V41.8742H29.6428L15.0108 20.4211V41.8742H3.65723V2.80249Z" fill="black"/>
<path d="M41.9035 42.7549H29.177L15.8912 23.2751V42.7549H2.77637V1.92188H15.3962L28.7613 21.5596V1.92188H41.9035V42.7549ZM30.1076 40.9936H40.1422V3.68319H30.5226V27.2777L14.4649 3.68319H4.53769V40.9936H14.1299V17.5666L30.1076 40.9936Z" fill="#6E48FF"/>
<path d="M4.00171 3.04053H15.2752L29.9873 24.6563V3.04053H41.3675V42.1122H29.9873L15.3552 20.6592V42.1122H4.00171V3.04053Z" fill="black"/>
<path d="M42.2456 42.9894H29.5232L16.234 23.5028V42.9894H3.12329V2.16187H15.7383L29.1089 21.8051V2.16187H42.2456V42.9894ZM30.4511 41.2329H40.4898V3.9184H30.8654V27.5075L14.8112 3.9184H4.87982V41.2336H14.4775V17.812L30.4511 41.2329Z" fill="#793EFF"/>
<path d="M4.34644 3.27856H15.6207L30.332 24.8944V3.27856H41.7122V42.3496H30.332L15.7 20.8965V42.3496H4.34644V3.27856Z" fill="black"/>
<path d="M42.5882 43.2253H29.8706L16.576 23.7353V43.2253H3.4707V2.40186H16.0837L29.4563 22.0505V2.40186H42.5882V43.2253ZM30.7951 41.4736H40.8365V4.15292H31.208V27.7379L15.1572 4.15292H5.22245V41.4736H14.8242V18.0582L30.7951 41.4736Z" fill="#8334FF"/>
<path d="M4.69141 3.51562H15.9656L30.677 25.1321V3.51562H42.0572V42.5873H30.677L16.0449 21.1343V42.5873H4.69141V3.51562Z" fill="black"/>
<path d="M42.9309 43.4612H30.2133L16.9186 23.965V43.4612H3.81812V2.64185H16.427L29.803 22.296V2.64253H42.9309V43.4612ZM31.1384 41.7142H41.1839V4.38949H31.55V27.9683L15.5033 4.38949H5.56507V41.7142H15.1716V18.3064L31.1384 41.7142Z" fill="#8E2AFF"/>
<path d="M5.03589 3.75366H16.3101L31.0215 25.3701V3.75366H42.4017V42.8254H31.0215L16.3901 21.3723V42.8254H5.03589V3.75366Z" fill="black"/>
<path d="M43.2723 43.6965H30.5608L17.26 24.1955V43.6965H4.16431V2.88257H16.7704L30.1499 22.5456V2.88257H43.2723V43.6965ZM31.4811 41.9543H41.5321V4.62201H31.8914V28.1981L15.8488 4.62474H5.90648V41.957H15.5178V18.5491L31.4811 41.9543Z" fill="#981FFF"/>
<path d="M5.3811 3.9917H16.6546L31.366 25.6082V3.9917H42.7462V43.0634H31.366L16.7346 21.6103V43.0634H5.3811V3.9917Z" fill="black"/>
<path d="M43.6154 43.9317H30.9074L17.6031 24.4253V43.9317H4.51221V3.12329H17.1142L30.4978 22.7877V3.12329H43.6154V43.9317ZM31.8249 42.1943H41.8759V4.86204H32.2352V28.4258L16.1953 4.85999H6.24959V42.1923H15.8657V18.7946L31.8249 42.1943Z" fill="#A315FF"/>
<path d="M5.72559 4.22949H16.9991L31.7105 25.846V4.22949H43.0914V43.3012H31.7105L17.0791 21.8481V43.3012H5.72559V4.22949Z" fill="black"/>
<path d="M43.957 44.1676H31.2531L17.9455 24.6557V44.1676H4.85864V3.36328H17.4573L30.8442 23.0332V3.36328H43.957V44.1676ZM32.1686 42.435H42.2244V5.09588H32.5768V28.6583L16.541 5.09588H6.59124V42.435H16.2129V19.0401L32.1686 42.435Z" fill="#AD0BFF"/>
<path d="M6.07031 4.46753H17.3438L32.0559 26.084V4.46753H43.4361V43.5365H32.0559L17.4238 22.0834V43.5365H6.07373L6.07031 4.46753Z" fill="black" stroke="#B801FF" stroke-width="1.72781" stroke-miterlimit="10"/>
</g>
<defs>
<clipPath id="clip0">
<rect width="122" height="44.4029" fill="white"/>
</clipPath>
</defs>
</svg>
