<svg width="28" height="20" viewBox="0 0 28 20" fill="none" xmlns="http://www.w3.org/2000/svg">
<rect width="28" height="20" rx="2" fill="white"/>
<mask id="mask0" mask-type="alpha" maskUnits="userSpaceOnUse" x="0" y="0" width="28" height="20">
<rect width="28" height="20" rx="2" fill="white"/>
</mask>
<g mask="url(#mask0)">
<path fill-rule="evenodd" clip-rule="evenodd" d="M28 0H0V1.33333H28V0ZM28 2.66667H0V4H28V2.66667ZM0 5.33333H28V6.66667H0V5.33333ZM28 8H0V9.33333H28V8ZM0 10.6667H28V12H0V10.6667ZM28 13.3333H0V14.6667H28V13.3333ZM0 16H28V17.3333H0V16ZM28 18.6667H0V20H28V18.6667Z" fill="#D02F44"/>
<rect width="12" height="9.33333" fill="#46467F"/>
<g filter="url(#filter0_d)">
<path fill-rule="evenodd" clip-rule="evenodd" d="M2.66683 2.00004C2.66683 2.36823 2.36835 2.66671 2.00016 2.66671C1.63197 2.66671 1.3335 2.36823 1.3335 2.00004C1.3335 1.63185 1.63197 1.33337 2.00016 1.33337C2.36835 1.33337 2.66683 1.63185 2.66683 2.00004ZM5.3335 2.00004C5.3335 2.36823 5.03502 2.66671 4.66683 2.66671C4.29864 2.66671 4.00016 2.36823 4.00016 2.00004C4.00016 1.63185 4.29864 1.33337 4.66683 1.33337C5.03502 1.33337 5.3335 1.63185 5.3335 2.00004ZM7.3335 2.66671C7.70169 2.66671 8.00016 2.36823 8.00016 2.00004C8.00016 1.63185 7.70169 1.33337 7.3335 1.33337C6.96531 1.33337 6.66683 1.63185 6.66683 2.00004C6.66683 2.36823 6.96531 2.66671 7.3335 2.66671ZM10.6668 2.00004C10.6668 2.36823 10.3684 2.66671 10.0002 2.66671C9.63197 2.66671 9.3335 2.36823 9.3335 2.00004C9.3335 1.63185 9.63197 1.33337 10.0002 1.33337C10.3684 1.33337 10.6668 1.63185 10.6668 2.00004ZM3.3335 4.00004C3.70169 4.00004 4.00016 3.70156 4.00016 3.33337C4.00016 2.96518 3.70169 2.66671 3.3335 2.66671C2.96531 2.66671 2.66683 2.96518 2.66683 3.33337C2.66683 3.70156 2.96531 4.00004 3.3335 4.00004ZM6.66683 3.33337C6.66683 3.70156 6.36835 4.00004 6.00016 4.00004C5.63197 4.00004 5.3335 3.70156 5.3335 3.33337C5.3335 2.96518 5.63197 2.66671 6.00016 2.66671C6.36835 2.66671 6.66683 2.96518 6.66683 3.33337ZM8.66683 4.00004C9.03502 4.00004 9.3335 3.70156 9.3335 3.33337C9.3335 2.96518 9.03502 2.66671 8.66683 2.66671C8.29864 2.66671 8.00016 2.96518 8.00016 3.33337C8.00016 3.70156 8.29864 4.00004 8.66683 4.00004ZM10.6668 4.66671C10.6668 5.0349 10.3684 5.33337 10.0002 5.33337C9.63197 5.33337 9.3335 5.0349 9.3335 4.66671C9.3335 4.29852 9.63197 4.00004 10.0002 4.00004C10.3684 4.00004 10.6668 4.29852 10.6668 4.66671ZM7.3335 5.33337C7.70169 5.33337 8.00016 5.0349 8.00016 4.66671C8.00016 4.29852 7.70169 4.00004 7.3335 4.00004C6.96531 4.00004 6.66683 4.29852 6.66683 4.66671C6.66683 5.0349 6.96531 5.33337 7.3335 5.33337ZM5.3335 4.66671C5.3335 5.0349 5.03502 5.33337 4.66683 5.33337C4.29864 5.33337 4.00016 5.0349 4.00016 4.66671C4.00016 4.29852 4.29864 4.00004 4.66683 4.00004C5.03502 4.00004 5.3335 4.29852 5.3335 4.66671ZM2.00016 5.33337C2.36835 5.33337 2.66683 5.0349 2.66683 4.66671C2.66683 4.29852 2.36835 4.00004 2.00016 4.00004C1.63197 4.00004 1.3335 4.29852 1.3335 4.66671C1.3335 5.0349 1.63197 5.33337 2.00016 5.33337ZM4.00016 6.00004C4.00016 6.36823 3.70169 6.66671 3.3335 6.66671C2.96531 6.66671 2.66683 6.36823 2.66683 6.00004C2.66683 5.63185 2.96531 5.33337 3.3335 5.33337C3.70169 5.33337 4.00016 5.63185 4.00016 6.00004ZM6.00016 6.66671C6.36835 6.66671 6.66683 6.36823 6.66683 6.00004C6.66683 5.63185 6.36835 5.33337 6.00016 5.33337C5.63197 5.33337 5.3335 5.63185 5.3335 6.00004C5.3335 6.36823 5.63197 6.66671 6.00016 6.66671ZM9.3335 6.00004C9.3335 6.36823 9.03502 6.66671 8.66683 6.66671C8.29864 6.66671 8.00016 6.36823 8.00016 6.00004C8.00016 5.63185 8.29864 5.33337 8.66683 5.33337C9.03502 5.33337 9.3335 5.63185 9.3335 6.00004ZM10.0002 8.00004C10.3684 8.00004 10.6668 7.70156 10.6668 7.33337C10.6668 6.96518 10.3684 6.66671 10.0002 6.66671C9.63197 6.66671 9.3335 6.96518 9.3335 7.33337C9.3335 7.70156 9.63197 8.00004 10.0002 8.00004ZM8.00016 7.33337C8.00016 7.70156 7.70169 8.00004 7.3335 8.00004C6.96531 8.00004 6.66683 7.70156 6.66683 7.33337C6.66683 6.96518 6.96531 6.66671 7.3335 6.66671C7.70169 6.66671 8.00016 6.96518 8.00016 7.33337ZM4.66683 8.00004C5.03502 8.00004 5.3335 7.70156 5.3335 7.33337C5.3335 6.96518 5.03502 6.66671 4.66683 6.66671C4.29864 6.66671 4.00016 6.96518 4.00016 7.33337C4.00016 7.70156 4.29864 8.00004 4.66683 8.00004ZM2.66683 7.33337C2.66683 7.70156 2.36835 8.00004 2.00016 8.00004C1.63197 8.00004 1.3335 7.70156 1.3335 7.33337C1.3335 6.96518 1.63197 6.66671 2.00016 6.66671C2.36835 6.66671 2.66683 6.96518 2.66683 7.33337Z" fill="url(#paint0_linear)"/>
</g>
</g>
<defs>
<filter id="filter0_d" x="1.3335" y="1.33337" width="9.33333" height="7.66667" filterUnits="userSpaceOnUse" color-interpolation-filters="sRGB">
<feFlood flood-opacity="0" result="BackgroundImageFix"/>
<feColorMatrix in="SourceAlpha" type="matrix" values="0 0 0 0 0 0 0 0 0 0 0 0 0 0 0 0 0 0 127 0"/>
<feOffset dy="1"/>
<feColorMatrix type="matrix" values="0 0 0 0 0 0 0 0 0 0 0 0 0 0 0 0 0 0 0.06 0"/>
<feBlend mode="normal" in2="BackgroundImageFix" result="effect1_dropShadow"/>
<feBlend mode="normal" in="SourceGraphic" in2="effect1_dropShadow" result="shape"/>
</filter>
<linearGradient id="paint0_linear" x1="1.3335" y1="1.33337" x2="1.3335" y2="8.00004" gradientUnits="userSpaceOnUse">
<stop stop-color="white"/>
<stop offset="1" stop-color="#F0F0F0"/>
</linearGradient>
</defs>
</svg>
